<svg width="76" height="67" viewBox="0 0 76 67" fill="none" xmlns="http://www.w3.org/2000/svg">
<path d="M66.8142 45.1451L30.0787 9.90369L27.3698 7.30496L27.1877 11.0544L26.6569 21.9882L26.6152 22.8367L27.2667 23.3817L45.899 38.9937L27.8063 37.0626L26.0023 36.8697L25.9174 38.6825L24.9952 58.3367L24.8813 60.7693L27.2084 60.0493L66.1356 48.0118L68.9089 47.1542L66.8142 45.1451ZM23.1102 24.6361L23.1631 23.5196L24.1044 3.34552L24.1043 3.34243L24.1149 3.22016C24.1483 2.93665 24.2522 2.66536 24.418 2.43139C24.6076 2.1639 24.8699 1.95636 25.1741 1.83389L25.175 1.83354L25.2896 1.79165C25.5618 1.70392 25.8525 1.68569 26.1346 1.73949C26.4567 1.80092 26.7549 1.95334 26.9925 2.1792L73.3451 46.6534L73.3519 46.6602C73.5703 46.8674 73.7308 47.1285 73.8159 47.4173C73.901 47.7062 73.9079 48.0131 73.8366 48.3057L73.8342 48.316L73.8314 48.3276C73.7647 48.6175 73.6238 48.8851 73.422 49.1038C73.2201 49.3225 72.964 49.4849 72.6801 49.5745L23.5764 64.7465L23.5746 64.7472C23.3119 64.8286 23.0335 64.8451 22.7629 64.796C22.4922 64.7468 22.2371 64.6336 22.0198 64.4649L22.0051 64.4538C21.755 64.2638 21.5625 64.0082 21.448 63.7157L21.4469 63.713C21.3699 63.5171 21.3389 63.3057 21.3567 63.096L21.3599 63.0634L21.3606 63.0296L22.1733 45.2854L22.217 44.3168L21.4083 43.7819L3.71445 32.0753L23.1102 24.6361Z" fill="#1BB12D" stroke="#1BB12D" stroke-width="3.41941"/>
</svg>
