<svg width="27" height="30" viewBox="0 0 27 30" fill="none" xmlns="http://www.w3.org/2000/svg">
<path d="M13.0504 22.2004C16.0316 22.2004 18.4504 19.7816 18.4504 16.8004C18.4504 13.8191 16.0316 11.4004 13.0504 11.4004C10.0691 11.4004 7.65039 13.8191 7.65039 16.8004C7.65039 19.7816 10.0691 22.2004 13.0504 22.2004ZM13.0504 13.8004C14.7079 13.8004 16.0504 15.1429 16.0504 16.8004C16.0504 18.4579 14.7079 19.8004 13.0504 19.8004C11.3929 19.8004 10.0504 18.4579 10.0504 16.8004C10.0504 15.1429 11.3929 13.8004 13.0504 13.8004Z" fill="#CD2B2B"/>
<path d="M25.2 5.4H24.1463L22.8075 0.86625C22.6575 0.3525 22.1888 0 21.6562 0H4.74375C4.2075 0 3.73875 0.3525 3.5925 0.86625L2.25375 5.4H1.2C0.53625 5.4 0 5.93625 0 6.6V7.65C0 7.815 0.135 7.95 0.3 7.95H2.0175L3.80625 28.9012C3.83163 29.201 3.96867 29.4803 4.19022 29.6838C4.41178 29.8873 4.70168 30.0001 5.0025 30H21.0975C21.3983 30.0001 21.6882 29.8873 21.9098 29.6838C22.1313 29.4803 22.2684 29.201 22.2938 28.9012L24.0825 7.95H26.1C26.265 7.95 26.4 7.815 26.4 7.65V6.6C26.4 5.93625 25.8638 5.4 25.2 5.4ZM5.7525 2.55H20.6475L21.4875 5.4H4.9125L5.7525 2.55ZM19.86 27.45H6.24L4.575 7.95H21.5213L19.86 27.45Z" fill="#CD2B2B"/>
</svg>
