<svg width="40" height="27" viewBox="0 0 40 27" fill="none" xmlns="http://www.w3.org/2000/svg">
<path d="M34.3333 1H5.16667C2.86548 1 1 2.86548 1 5.16667V21.8333C1 24.1345 2.86548 26 5.16667 26H34.3333C36.6345 26 38.5 24.1345 38.5 21.8333V5.16667C38.5 2.86548 36.6345 1 34.3333 1Z" stroke="#CD2B2B" stroke-width="2"/>
<path d="M7.25 7.25H11.4167M28.0833 19.75H32.25" stroke="#CD2B2B" stroke-width="2" stroke-linecap="round"/>
<path d="M19.7497 17.6663C22.0509 17.6663 23.9163 15.8009 23.9163 13.4997C23.9163 11.1985 22.0509 9.33301 19.7497 9.33301C17.4485 9.33301 15.583 11.1985 15.583 13.4997C15.583 15.8009 17.4485 17.6663 19.7497 17.6663Z" stroke="#CD2B2B" stroke-width="2"/>
</svg>
