<svg width="48" height="48" viewBox="0 0 48 48" fill="none" xmlns="http://www.w3.org/2000/svg">
<path d="M16.4502 18.9502L24.5952 25.0602C25.0998 25.4386 25.7288 25.6124 26.3561 25.5465C26.9834 25.4807 27.5627 25.1802 27.9777 24.7052L43.9502 6.4502" stroke="#CD2B2B" stroke-width="2.9" stroke-linecap="round"/>
<path d="M46.4502 23.9498C46.4503 28.6511 44.9777 33.2344 42.2393 37.0558C39.501 40.8773 35.6343 43.745 31.1825 45.2562C26.7307 46.7673 21.9173 46.846 17.4185 45.4812C12.9196 44.1165 8.96126 41.3767 6.09938 37.6468C3.2375 33.917 1.61586 29.3843 1.46222 24.6855C1.30858 19.9867 2.63065 15.3578 5.24275 11.4489C7.85486 7.54007 11.6258 4.5476 16.0259 2.89183C20.4259 1.23606 25.2342 1.00017 29.7752 2.21729" stroke="#CD2B2B" stroke-width="2.9" stroke-linecap="round"/>
</svg>
