<svg width="39" height="39" viewBox="0 0 39 39" fill="none" xmlns="http://www.w3.org/2000/svg">
<path d="M29.7778 8.19444H30.8056M1 14.1556C1 9.55111 1 7.24889 1.89622 5.48933C2.6845 3.94229 3.94229 2.6845 5.48933 1.89622C7.24889 1 9.55111 1 14.1556 1H24.8444C29.4489 1 31.7511 1 33.5107 1.89622C35.0577 2.6845 36.3155 3.94229 37.1038 5.48933C38 7.24889 38 9.55111 38 14.1556V24.8444C38 29.4489 38 31.7511 37.1038 33.5107C36.3155 35.0577 35.0577 36.3155 33.5107 37.1038C31.7511 38 29.4489 38 24.8444 38H14.1556C9.55111 38 7.24889 38 5.48933 37.1038C3.94229 36.3155 2.6845 35.0577 1.89622 33.5107C1 31.7511 1 29.4489 1 24.8444V14.1556Z" stroke="black" stroke-width="2" stroke-linecap="round" stroke-linejoin="round"/>
<path d="M26.6162 18.4453C26.7546 19.3799 26.7077 20.3327 26.4779 21.2492C26.2482 22.1657 25.8402 23.028 25.2772 23.7869C24.7142 24.5457 24.0072 25.1862 23.1967 25.6718C22.3862 26.1574 21.488 26.4786 20.5533 26.6171C19.6186 26.7556 18.6658 26.7086 17.7493 26.4789C16.8328 26.2491 15.9705 25.8411 15.2117 25.2781C13.6792 24.1411 12.6611 22.4419 12.3814 20.5543C12.1018 18.6666 12.5834 16.7452 13.7204 15.2127C14.8574 13.6802 16.5567 12.6621 18.4443 12.3824C20.3319 12.1027 22.2534 12.5844 23.7859 13.7214C25.3184 14.8584 26.3365 16.5576 26.6162 18.4453Z" stroke="black" stroke-width="2" stroke-linecap="round" stroke-linejoin="round"/>
</svg>
