<svg width="153" height="148" viewBox="0 0 153 148" fill="none" xmlns="http://www.w3.org/2000/svg">
<ellipse cx="75.3381" cy="74.1855" rx="75.3381" ry="73.1855" fill="#0285D6"/>
<path fill-rule="evenodd" clip-rule="evenodd" d="M75.5917 65.3197V69.4564C76.458 68.1368 77.652 67.0648 79.057 66.3452C80.462 65.6257 82.0297 65.2832 83.6067 65.3514C92.0289 65.3514 93.8498 70.6167 93.8498 77.4664V91.4121H86.0493V79.0484C86.0493 76.0989 85.4545 72.3059 80.8619 72.3059C76.4083 72.3059 75.6477 75.5163 75.6477 78.829V91.4121H67.8716V65.3197H75.5917ZM62.6477 58.7625C62.6467 59.5352 62.4176 60.2905 61.9892 60.9336C61.5608 61.5767 60.952 62.079 60.2392 62.3775C59.5268 62.6736 58.7423 62.7511 57.9857 62.6C57.2291 62.449 56.5345 62.0762 55.9904 61.5292C55.4452 60.9818 55.0741 60.2855 54.9237 59.5278C54.7732 58.7701 54.8501 57.9848 55.1448 57.2707C55.4395 56.5566 55.9387 55.9456 56.5797 55.5144C57.2207 55.0833 57.9749 54.8513 58.7474 54.8477C59.2608 54.8477 59.7692 54.949 60.2433 55.1459C60.7175 55.3429 61.1481 55.6314 61.5105 55.9952C61.8729 56.3589 62.1598 56.7906 62.355 57.2655C62.5501 57.7403 62.6496 58.2491 62.6477 58.7625Z" fill="white"/>
<path d="M62.6472 65.3496H54.8467V91.4103H62.6472V65.3496Z" fill="white"/>
</svg>
