<svg width="39" height="37" viewBox="0 0 39 37" fill="none" xmlns="http://www.w3.org/2000/svg">
<path fill-rule="evenodd" clip-rule="evenodd" d="M20.745 10.472V14.6087C21.6113 13.2892 22.8054 12.2171 24.2103 11.4976C25.6153 10.778 27.183 10.4356 28.76 10.5037C37.1822 10.5037 39.0031 15.769 39.0031 22.6187V36.5644H31.2026V24.2008C31.2026 21.2512 30.6078 17.4583 26.0152 17.4583C21.5616 17.4583 20.8011 20.6686 20.8011 23.9814V36.5644H13.0249V10.472H20.745ZM7.80098 3.91483C7.80002 4.68756 7.57096 5.44282 7.14252 6.08591C6.71408 6.729 6.10532 7.2313 5.39257 7.52983C4.68011 7.82596 3.89565 7.90342 3.13903 7.75236C2.38241 7.60129 1.68784 7.22854 1.14371 6.68154C0.598567 6.13419 0.227429 5.43788 0.0769708 4.68016C-0.0734877 3.92245 0.00345157 3.13717 0.298112 2.42307C0.592772 1.70896 1.092 1.09792 1.73301 0.666786C2.37403 0.235648 3.12821 0.0036623 3.90072 0C4.41414 -3.60986e-06 4.92251 0.10136 5.39667 0.298278C5.87083 0.495195 6.30144 0.783791 6.66381 1.14751C7.02617 1.51123 7.31316 1.94291 7.5083 2.41779C7.70345 2.89268 7.80291 3.40142 7.80098 3.91483Z" fill="black"/>
<path d="M7.80054 10.502H0V36.5626H7.80054V10.502Z" fill="black"/>
</svg>
