<svg width="20" height="18" viewBox="0 0 20 18" fill="none" xmlns="http://www.w3.org/2000/svg">
<path fill-rule="evenodd" clip-rule="evenodd" d="M10.2122 5.1552V7.1916C10.6387 6.54201 11.2265 6.01428 11.9181 5.66005C12.6097 5.30582 13.3815 5.13724 14.1578 5.1708C18.3038 5.1708 19.2002 7.7628 19.2002 11.1348V18H15.3602V11.9136C15.3602 10.4616 15.0674 8.5944 12.8066 8.5944C10.6142 8.5944 10.2398 10.1748 10.2398 11.8056V18H6.41184V5.1552H10.2122ZM3.84024 1.9272C3.83976 2.3076 3.727 2.6794 3.51609 2.99598C3.30518 3.31256 3.0055 3.55984 2.65464 3.7068C2.30391 3.85258 1.91774 3.89071 1.54528 3.81635C1.17281 3.74198 0.830893 3.55848 0.563035 3.2892C0.294674 3.01975 0.111973 2.67697 0.0379058 2.30396C-0.036161 1.93095 0.00171421 1.54437 0.146768 1.19283C0.291821 0.841292 0.537577 0.540488 0.853131 0.328247C1.16869 0.116006 1.53995 0.00180288 1.92024 0C2.17298 -1.77707e-06 2.42324 0.0498979 2.65665 0.146837C2.89007 0.243776 3.10205 0.385846 3.28043 0.564898C3.45882 0.74395 3.60009 0.95646 3.69616 1.19024C3.79222 1.42401 3.84118 1.67446 3.84024 1.9272Z" fill="white"/>
<path d="M3.84 5.16992H0V17.9991H3.84V5.16992Z" fill="white"/>
</svg>
