<svg width="126" height="93" viewBox="0 0 126 93" fill="none" xmlns="http://www.w3.org/2000/svg">
<path d="M32.3951 22.6471C38.989 22.6471 44.7966 24.4922 49.8176 28.1824C56.8351 33.3849 60.3438 40.9166 60.3438 50.7772C60.3438 54.4674 59.7388 57.9762 58.5289 61.3034C55.9881 68.1998 51.2998 73.1906 44.4638 76.2759C45.2503 77.1833 45.8855 77.9395 46.3694 78.5445C49.8781 82.5371 53.0239 84.5335 55.8067 84.5335C58.2265 84.4125 61.0697 82.7791 64.3364 79.6334L66.4235 80.813C63.3383 88.1329 59.2549 91.8534 54.1733 91.9743C51.0275 91.9139 48.0028 90.2805 45.099 87.0743C44.0706 85.9248 41.9835 82.9606 38.8378 78.1815C36.539 78.6654 34.3007 78.9074 32.1229 78.9074C25.2264 78.9074 19.2072 76.8808 14.0651 72.8277C7.28965 67.4436 3.90193 60.033 3.90193 50.5958C3.90193 42.3079 6.74519 35.5023 12.4317 30.1787C17.8763 25.1576 24.5307 22.6471 32.3951 22.6471ZM30.9432 66.7479C34.1494 66.8689 37.7489 68.9862 41.7416 73.0999C45.7947 69.4097 47.8516 61.8478 47.9121 50.4143C47.9121 46.5426 47.6398 43.0944 47.0954 40.0696C45.341 30.2089 40.3804 25.2786 32.2136 25.2786C31.1247 25.2786 30.066 25.3693 29.0376 25.5508C20.5683 27.0632 16.3337 35.5023 16.3337 50.868C16.3337 61.5151 18.209 68.7443 21.9597 72.5554C24.682 68.7443 27.6765 66.8084 30.9432 66.7479ZM32.3043 76.2759C34.1797 76.2759 35.7828 76.0642 37.1137 75.6407C34.7544 72.374 32.4556 70.7104 30.2173 70.6499C28.2209 70.7104 26.1338 71.89 23.956 74.1888C26.1338 75.5197 28.9166 76.2154 32.3043 76.2759Z" fill="#CD2B2B"/>
<path d="M72.3465 80.515C72.4191 80.515 72.4796 80.5211 72.528 80.5332C72.7094 80.5574 72.8002 80.7026 72.8002 80.9688H70.2413L70.1142 79.1176C69.9811 79.4564 69.8057 79.7649 69.5879 80.0432C69.0072 80.7812 68.2631 81.1502 67.3556 81.1502C65.6376 81.1381 64.7725 80.0976 64.7604 78.0287V73.7093H63.363V73.2556H66.1215V78.3009C66.1215 78.4945 66.1336 78.676 66.1578 78.8454C66.3151 79.8617 66.8898 80.3698 67.8819 80.3698C68.2449 80.3698 68.5958 80.2549 68.9346 80.025C69.6968 79.5169 70.0779 78.7183 70.0779 77.6294V73.7093H68.5897V73.2556H71.4391V80.515H72.3465ZM77.5551 80.515C77.6156 80.515 77.6761 80.5211 77.7366 80.5332C77.9181 80.5574 78.0088 80.7026 78.0088 80.9688H73.8347V80.515C74.246 80.515 74.5424 80.4908 74.7239 80.4424C75.099 80.3215 75.2865 79.9827 75.2865 79.4261V73.7093H73.8347V73.2556H76.6477V80.515H77.5551ZM76.8655 70.606C76.8655 70.7511 76.8352 70.8903 76.7747 71.0234C76.6053 71.4105 76.3089 71.6041 75.8854 71.6041C75.7523 71.6041 75.6193 71.5799 75.4862 71.5315C75.0869 71.3621 74.8873 71.0536 74.8873 70.606C74.8873 70.4608 74.9175 70.3216 74.978 70.1885C75.1595 69.8014 75.462 69.6078 75.8854 69.6078C76.0185 69.6078 76.1577 69.638 76.3029 69.6985C76.6779 69.88 76.8655 70.1825 76.8655 70.606ZM82.6548 80.515C82.7274 80.515 82.7879 80.5211 82.8363 80.5332C83.0178 80.5574 83.1085 80.7026 83.1085 80.9688H79.1159V80.515C79.5272 80.515 79.8237 80.4848 80.0051 80.4243C80.3197 80.3154 80.477 79.9827 80.477 79.4261V69.6259H79.1159V69.1722H81.8381V77.1031L85.5041 73.7093H84.143V73.2556H87.2283C87.2283 73.3161 87.2222 73.3766 87.2101 73.4371C87.1859 73.6186 87.0407 73.7093 86.7745 73.7093C86.6535 73.7093 86.5447 73.7214 86.4479 73.7456C86.2301 73.794 85.9095 74.0179 85.486 74.4171L83.78 76.0142L86.7019 80.515H87.3553C87.4279 80.515 87.4884 80.5211 87.5368 80.5332C87.7183 80.5574 87.809 80.7026 87.809 80.9688H85.3953L82.8363 76.9035L81.8381 77.8291V80.515H82.6548ZM98.2081 80.9688H98.0629C97.954 80.9688 97.8633 80.9506 97.7907 80.9143C97.6576 80.8417 97.4822 80.4969 97.2644 79.8798L95.3225 74.399L92.9632 81.0595H92.818C92.7454 81.0595 92.6728 81.0474 92.6002 81.0232C92.4066 80.9506 92.1888 80.5695 91.9469 79.8798L88.6075 70.5515H87.5368V70.0796H91.5294V70.5515H90.0594L93.1265 79.0813L95.0321 73.5642L93.798 70.0796H96.9196V70.5515H95.4495L98.3714 79.1176L101.221 70.5515H99.7689V70.0796H102.709V70.5515H101.801L98.2081 80.9688ZM107.319 80.515C107.391 80.515 107.452 80.5211 107.5 80.5332C107.682 80.5574 107.772 80.7026 107.772 80.9688H103.29V80.515C103.701 80.515 103.997 80.4848 104.179 80.4243C104.494 80.3154 104.651 79.9827 104.651 79.4261V73.7093H103.29V73.2556H105.921L105.994 75.0523C106.151 74.6894 106.363 74.3627 106.629 74.0723C107.198 73.4553 107.845 73.1467 108.571 73.1467C108.68 73.1467 108.795 73.1588 108.916 73.183C109.472 73.304 109.751 73.6368 109.751 74.1812C109.751 74.2538 109.738 74.3264 109.714 74.399C109.617 74.7499 109.388 74.9253 109.025 74.9253C108.952 74.9253 108.879 74.9132 108.807 74.889C108.637 74.8406 108.456 74.647 108.262 74.3082C108.093 74.0058 107.905 73.8545 107.7 73.8545C107.518 73.8666 107.294 73.9997 107.028 74.2538C106.351 74.9192 106.012 75.8025 106.012 76.9035V80.515H107.319ZM113.943 80.515C114.015 80.515 114.076 80.5211 114.124 80.5332C114.306 80.5574 114.397 80.7026 114.397 80.9688H110.404V80.515C110.815 80.515 111.112 80.4848 111.293 80.4243C111.608 80.3154 111.765 79.9827 111.765 79.4261V69.6259H110.404V69.1722H113.126V77.1031L116.792 73.7093H115.431V73.2556H118.516C118.516 73.3161 118.51 73.3766 118.498 73.4371C118.474 73.6186 118.329 73.7093 118.063 73.7093C117.942 73.7093 117.833 73.7214 117.736 73.7456C117.518 73.794 117.197 74.0179 116.774 74.4171L115.068 76.0142L117.99 80.515H118.643C118.716 80.515 118.776 80.5211 118.825 80.5332C119.006 80.5574 119.097 80.7026 119.097 80.9688H116.683L114.124 76.9035L113.126 77.8291V80.515H113.943Z" fill="#CD2B2B"/>
</svg>
