<svg width="38" height="45" viewBox="0 0 38 45" fill="none" xmlns="http://www.w3.org/2000/svg">
<path d="M33.9025 33.0857V5.02549C33.9025 4.54498 33.5138 4.15185 33.0388 4.15185H23.8613V0.395192C23.8613 0.0675772 23.4834 -0.118071 23.2297 0.0839581L16.3412 5.58789C16.2946 5.62432 16.2569 5.67107 16.2309 5.72455C16.205 5.77803 16.1915 5.83682 16.1915 5.8964C16.1915 5.95598 16.205 6.01477 16.2309 6.06825C16.2569 6.12173 16.2946 6.16847 16.3412 6.2049L23.2243 11.7088C23.478 11.9109 23.8559 11.7307 23.8559 11.3976V7.64641H30.0102V33.0857C27.6241 33.9048 25.9074 36.1926 25.9074 38.8791C25.9074 42.2535 28.6174 44.9945 31.9537 44.9945C35.2899 44.9945 38 42.2535 38 38.8791C38.0054 36.1926 36.2887 33.9102 33.9025 33.0857ZM31.9591 41.5C31.281 41.486 30.6353 41.2037 30.1607 40.7137C29.686 40.2237 29.4202 39.565 29.4202 38.8791C29.4202 38.1931 29.686 37.5344 30.1607 37.0444C30.6353 36.5544 31.281 36.2721 31.9591 36.2581C32.6372 36.2721 33.2828 36.5544 33.7575 37.0444C34.2321 37.5344 34.498 38.1931 34.498 38.8791C34.498 39.565 34.2321 40.2237 33.7575 40.7137C33.2828 41.2037 32.6372 41.486 31.9591 41.5ZM12.0926 6.11754C12.0926 2.7431 9.38258 0.00205433 6.04631 0.00205433C2.71004 0.00205433 0 2.7431 0 6.11754C0 8.80398 1.71672 11.0864 4.10285 11.9109V33.0912C1.71672 33.9102 0 36.1981 0 38.8845C0 42.259 2.71004 45 6.04631 45C9.38258 45 12.0926 42.259 12.0926 38.8845C12.0926 36.1981 10.3759 33.9157 7.98977 33.0912V11.9109C10.3759 11.0864 12.0926 8.80398 12.0926 6.11754ZM3.45503 6.11754C3.46888 5.43169 3.74797 4.77866 4.23242 4.29856C4.71687 3.81847 5.36808 3.54957 6.04631 3.54957C6.72454 3.54957 7.37575 3.81847 7.8602 4.29856C8.34465 4.77866 8.62374 5.43169 8.63759 6.11754C8.62374 6.80339 8.34465 7.45642 7.8602 7.93651C7.37575 8.41661 6.72454 8.6855 6.04631 8.6855C5.36808 8.6855 4.71687 8.41661 4.23242 7.93651C3.74797 7.45642 3.46888 6.80339 3.45503 6.11754ZM8.63759 38.8791C8.62374 39.5649 8.34465 40.2179 7.8602 40.698C7.37575 41.1781 6.72454 41.447 6.04631 41.447C5.36808 41.447 4.71687 41.1781 4.23242 40.698C3.74797 40.2179 3.46888 39.5649 3.45503 38.8791C3.46888 38.1932 3.74797 37.5402 4.23242 37.0601C4.71687 36.58 5.36808 36.3111 6.04631 36.3111C6.72454 36.3111 7.37575 36.58 7.8602 37.0601C8.34465 37.5402 8.62374 38.1932 8.63759 38.8791Z" fill="#CD2B2B"/>
</svg>
